<svg xmlns="http://www.w3.org/2000/svg" xmlns:svg="http://www.w3.org/2000/svg" id="svg44401" width="16" height="16" version="1.1"><path id="path1" style="fill:#2e3436;stroke-width:3.74083;fill-opacity:1" d="M 8 0 A 8 8 0 0 0 0 8 A 8 8 0 0 0 8 16 A 8 8 0 0 0 16 8 A 8 8 0 0 0 8 0 z M 8 1.75 A 6.25 6.25 0 0 1 14.25 8 A 6.25 6.25 0 0 1 8 14.25 A 6.25 6.25 0 0 1 1.75 8 A 6.25 6.25 0 0 1 8 1.75 z"/><path id="path1-6" d="m 8.0435681,1.9668048 c -0.5136601,0 -0.932604,0.4189439 -0.932604,0.9326038 V 10.906688 L 4.9725326,8.768256 C 4.7976694,8.5933927 4.5608751,8.495032 4.3131524,8.495032 c -0.2477227,0 -0.4845169,0.098361 -0.65938,0.273224 -0.364298,0.3642974 -0.364298,0.9544622 0,1.31876 l 3.7304155,3.730416 c 0.3642981,0.364298 0.9544621,0.364298 1.3187601,0 l 3.730416,-3.730416 c 0.364299,-0.3642978 0.364299,-0.9544626 0,-1.31876 -0.364297,-0.3642984 -0.954462,-0.3642984 -1.318759,0 L 8.9761719,10.906688 V 2.8994086 c 0,-0.5136599 -0.4189439,-0.9326038 -0.9326038,-0.9326038 z" style="fill:#2e3436;fill-opacity:1;stroke-width:.932603"/></svg>