<svg xmlns="http://www.w3.org/2000/svg" xmlns:svg="http://www.w3.org/2000/svg" id="svg44401" width="16" height="16" version="1.1"><path id="path1" fill="#2e3436" d="M 8,0 C 7.449219,0 7,0.449219 7,0.99999995 V 9.585938 L 4.707031,7.292969 C 4.519531,7.105469 4.265625,7 4,7 3.734375,7 3.480469,7.105469 3.292969,7.292969 c -0.390625,0.390625 -0.390625,1.023437 0,1.414062 l 4,4 c 0.390625,0.390625 1.023437,0.390625 1.414062,0 l 4,-4 c 0.390625,-0.390625 0.390625,-1.023437 0,-1.414062 -0.390625,-0.390625 -1.023437,-0.390625 -1.414062,0 L 9,9.585938 V 0.99999995 C 9,0.449219 8.550781,0 8,0 Z M 2,14 v 2 h 12 v -2 z m 0,0"/></svg>