<svg xmlns="http://www.w3.org/2000/svg" xmlns:svg="http://www.w3.org/2000/svg" id="svg44401" width="16" height="16" version="1.1"><g transform="translate(-20,-276)" style="display:inline;fill:#bebebe;fill-opacity:1" id="g6099"><title id="title47679">network-cellular-gprs</title><path id="rect14976" d="m 23,276 c -1.662,0 -3,1.338 -3,3 v 10 c 0,1.662 1.338,3 3,3 h 10 c 1.662,0 3,-1.338 3,-3 v -10 c 0,-1.662 -1.338,-3 -3,-3 z m 3,3 h 4 c 0.83333,0 1.52527,0.56422 1.76953,1.05273 C 32.01379,280.54125 32,281 32,281 v 1 h -2 v -1 h -4 v 6 h 4 l 0.0017,-1.06822 2,0.006 L 32,287 c 0,0 0.0138,0.45875 -0.23047,0.94727 C 31.52527,288.43578 30.83333,289 30,289 h -4 c 0,0 -0.45875,0.0138 -0.94727,-0.23047 C 24.56422,288.52527 24,287.83333 24,287 v -6 c 0,0 -0.0138,-0.45875 0.23047,-0.94727 C 24.47473,279.56422 25.16667,279 26,279 Z" style="fill:#2e3436;fill-opacity:1"/></g></svg>