<svg xmlns="http://www.w3.org/2000/svg" xmlns:svg="http://www.w3.org/2000/svg" id="svg44401" width="16" height="16" version="1.1"><g id="g7043" transform="translate(-20,-276)" style="display:inline"><title id="title47677">network-cellular-edge</title><path id="rect15081" d="m 623,320 c -1.662,0 -3,1.338 -3,3 v 10 c 0,1.662 1.338,3 3,3 h 10 c 1.662,0 3,-1.338 3,-3 v -10 c 0,-1.662 -1.338,-3 -3,-3 z m 3,3 H 626.0937 632 v 2 h -6 v 2 h 4 v 2 h -4 v 2 c -3.6e-4,-4.5e-4 0.0315,10e-5 0.0312,0 H 632 v 2 h -6 c -0.6248,0 -0.99413,-0.24118 -1.34375,-0.5625 -0.33108,-0.30424 -0.64399,-0.78976 -0.625,-1.4375 H 624 V 330.90625 325.0625 325 h 0.0312 c -0.013,-0.4751 0.11013,-0.99964 0.46875,-1.40625 0.35357,-0.40089 0.93419,-0.583 1.5,-0.5625 z" transform="translate(-600,-44)" style="fill:#2e3436;fill-opacity:1"/></g></svg>