<svg xmlns="http://www.w3.org/2000/svg" xmlns:svg="http://www.w3.org/2000/svg" id="svg44401" width="16" height="16" version="1.1"><g id="g43280" transform="matrix(1.1866825,0,0,1.1845405,-191.71899,-204.8834)" style="display:inline;enable-background:new"><g id="g2188" transform="matrix(0.83728176,0,0,0.83940891,-442.04052,195.87601)"><title id="title2190">emblem-favorite</title><path id="path312" style="font-style:normal;font-variant:normal;font-weight:400;font-stretch:normal;font-size:medium;line-height:normal;font-family:sans-serif;font-variant-ligatures:normal;font-variant-position:normal;font-variant-caps:normal;font-variant-numeric:normal;font-variant-alternates:normal;font-feature-settings:normal;text-indent:0;text-align:start;text-decoration:none;text-decoration-line:none;text-decoration-style:solid;word-spacing:normal;text-transform:none;writing-mode:lr-tb;direction:ltr;text-orientation:mixed;dominant-baseline:auto;baseline-shift:baseline;text-anchor:start;white-space:normal;shape-padding:0;clip-rule:nonzero;display:inline;opacity:1;isolation:auto;mix-blend-mode:normal;color-interpolation:sRGB;color-interpolation-filters:linearRGB;vector-effect:none;fill:#2e3436;fill-opacity:1;fill-rule:evenodd;stroke-width:7.5;stroke-linejoin:miter;color-rendering:auto;image-rendering:auto;shape-rendering:auto;text-rendering:auto" d="m 732.84667,-25.998048 c -1.10899,-0.03075 -2.18642,0.371329 -3.00414,1.121094 l -0.86001,0.765625 -0.86,-0.765625 c -4.25584,-3.868704 -10.01329,2.595288 -5.67993,6.376953 l 6.53993,5.826172 6.53994,-5.826172 c 2.94741,-2.549401 1.21974,-7.39065 -2.67579,-7.498047 z m 1.53445,6.122238 -5.3757,4.925536 -5.19709,-4.692025 c -2.82067,-2.492831 0.55734,-6.412725 3.35913,-3.898671 l 1.83466,1.473626 1.54364,-1.462036 c 2.99099,-2.791787 6.47679,1.207726 3.83536,3.65357 z"/></g></g></svg>