<svg xmlns="http://www.w3.org/2000/svg" xmlns:svg="http://www.w3.org/2000/svg" id="svg44401" width="16" height="16" version="1.1"><g id="g516049" transform="rotate(90,187.0356,23.967579)"><title id="title516043">emblem-important</title><path id="path516047" style="fill:#333;fill-opacity:1" d="m 708,708 c -4.40642,0 -8,3.59357 -8,8 0,4.40643 3.59358,8 8,8 4.40643,0 8,-3.59357 8,-8 0,-4.40643 -3.59357,-8 -8,-8 z m 1,3 v 6 c 0,0.55228 -0.44772,1 -1,1 -0.55228,0 -1,-0.44772 -1,-1 v -6 z m -1,8 c 0.55228,0 1,0.44772 1,1 0,0.55228 -0.44772,1 -1,1 -0.55228,0 -1,-0.44772 -1,-1 0,-0.55228 0.44772,-1 1,-1 z" transform="rotate(-90,183.03544,727.96742)"/></g></svg>