<svg xmlns="http://www.w3.org/2000/svg" width="128" height="128" fill="none" viewBox="0 0 128 128"><path fill="url(#paint0_linear_6_2)" fill-rule="evenodd" d="M16 34.8146C11.5817 34.8146 8 38.3963 8 42.8146V102.815C8 107.233 11.5817 110.815 16 110.815H112C116.418 110.815 120 107.233 120 102.815V42.8146C120 38.3963 116.418 34.8146 112 34.8146H16ZM40 70.8146C44.4183 70.8146 48 67.2329 48 62.8146C48 58.3963 44.4183 54.8146 40 54.8146C35.5817 54.8146 32 58.3963 32 62.8146C32 67.2329 35.5817 70.8146 40 70.8146ZM88 70.8146C92.4183 70.8146 96 67.2329 96 62.8146C96 58.3963 92.4183 54.8146 88 54.8146C83.5817 54.8146 80 58.3963 80 62.8146C80 67.2329 83.5817 70.8146 88 70.8146Z" clip-rule="evenodd"/><path fill="#404040" fill-rule="evenodd" d="M16 30.8146C11.5817 30.8146 8 34.3963 8 38.8146V94.8146C8 99.2329 11.5817 102.815 16 102.815H112C116.418 102.815 120 99.2329 120 94.8146V38.8146C120 34.3963 116.418 30.8146 112 30.8146H16ZM40 70.8146C44.4183 70.8146 48 67.2329 48 62.8146C48 58.3963 44.4183 54.8146 40 54.8146C35.5817 54.8146 32 58.3963 32 62.8146C32 67.2329 35.5817 70.8146 40 70.8146ZM88 70.8146C92.4183 70.8146 96 67.2329 96 62.8146C96 58.3963 92.4183 54.8146 88 54.8146C83.5817 54.8146 80 58.3963 80 62.8146C80 67.2329 83.5817 70.8146 88 70.8146Z" clip-rule="evenodd"/><g filter="url(#filter0_i_6_2)"><path fill="#F5F5F5" d="M21 39C18.2386 39 16 41.2386 16 44V63H24.0051C24.1711 57.8989 28.3586 53.8146 33.5 53.8146H94.5C99.6414 53.8146 103.829 57.8989 103.995 63H112V44C112 41.2386 109.761 39 107 39H21Z"/></g><path fill="#FCCA00" d="M24.0051 63C24.0017 63.1045 24 63.2093 24 63.3146C24 68.5613 28.2533 72.8146 33.5 72.8146H94.5C99.7467 72.8146 104 68.5613 104 63.3146C104 63.2093 103.998 63.1045 103.995 63L112 63V82C112 84.7614 109.761 87 107 87H21C18.2386 87 16 84.7614 16 82V63L24.0051 63Z"/><g filter="url(#filter1_i_6_2)"><circle cx="101.5" cy="92.315" r="2.5" fill="#292929"/></g><g filter="url(#filter2_i_6_2)"><circle cx="53.5" cy="97.315" r="2.5" fill="#292929"/></g><g filter="url(#filter3_i_6_2)"><circle cx="74.5" cy="97.315" r="2.5" fill="#292929"/></g><g filter="url(#filter4_i_6_2)"><circle cx="26.5" cy="92.315" r="2.5" fill="#292929"/></g><path fill="#929292" fill-rule="evenodd" d="M24 63.3146C24 58.0679 28.2533 53.8146 33.5 53.8146H94.5C99.7467 53.8146 104 58.0679 104 63.3146C104 68.5613 99.7467 72.8146 94.5 72.8146H33.5C28.2533 72.8146 24 68.5613 24 63.3146ZM96 62.8146C96 67.2329 92.4183 70.8146 88 70.8146C83.5817 70.8146 80 67.2329 80 62.8146C80 58.3963 83.5817 54.8146 88 54.8146C92.4183 54.8146 96 58.3963 96 62.8146ZM40 70.8146C44.4183 70.8146 48 67.2329 48 62.8146C48 58.3963 44.4183 54.8146 40 54.8146C35.5817 54.8146 32 58.3963 32 62.8146C32 67.2329 35.5817 70.8146 40 70.8146Z" clip-rule="evenodd"/><path fill="#6C6C6C" fill-rule="evenodd" d="M57.2306 53.8146H33.5C28.2533 53.8146 24 58.0679 24 63.3146C24 68.5613 28.2533 72.8146 33.5 72.8146H57.2306C58.9783 70.2504 60 67.1518 60 63.8146V62.8146C60 59.4774 58.9783 56.3788 57.2306 53.8146ZM48 62.8146C48 67.2329 44.4183 70.8146 40 70.8146C35.5817 70.8146 32 67.2329 32 62.8146C32 58.3963 35.5817 54.8146 40 54.8146C44.4183 54.8146 48 58.3963 48 62.8146Z" clip-rule="evenodd"/><path fill="#6C6C6C" fill-rule="evenodd" d="M104 63.3146C104 58.0679 99.7467 53.8146 94.5 53.8146H70.7694C69.0217 56.3788 68 59.4774 68 62.8146V63.8146C68 67.1518 69.0217 70.2504 70.7694 72.8146H94.5C99.7467 72.8146 104 68.5613 104 63.3146ZM96 62.8146C96 67.2329 92.4183 70.8146 88 70.8146C83.5817 70.8146 80 67.2329 80 62.8146C80 58.3963 83.5817 54.8146 88 54.8146C92.4183 54.8146 96 58.3963 96 62.8146Z" clip-rule="evenodd"/><g style="mix-blend-mode:soft-light"><path fill="#4D4D4D" d="M74.7694 53.8146H53.2307C53.4521 54.1396 53.6619 54.4731 53.8595 54.8146H74.1405C74.3381 54.4731 74.5479 54.1396 74.7694 53.8146Z"/></g><path fill="#BE3519" d="M111.784 40.3258L111.829 40.372L111.804 40.3962L111.784 40.3258Z"/><path fill="#BE3519" fill-rule="evenodd" d="M120.53 31.5L111.784 40.3258C109.498 37.9627 106.878 35.9244 104 34.2866V64.1608L103.996 64.162C103.812 72.8381 96.7205 79.8146 88 79.8146C79.1634 79.8146 72 72.6512 72 63.8146C72 54.978 79.1634 47.8146 88 47.8146C90.9143 47.8146 93.6466 48.5938 96 49.9551L96 20.8146H104V32.5871C113.693 30.9691 120.53 30.28 120.53 30.28V31.5ZM88 70.8146C92.4183 70.8146 96 67.2329 96 62.8146C96 58.3963 92.4183 54.8146 88 54.8146C83.5817 54.8146 80 58.3963 80 62.8146C80 67.2329 83.5817 70.8146 88 70.8146Z" clip-rule="evenodd"/><path fill="url(#paint1_linear_6_2)" fill-rule="evenodd" d="M96 17C105.52 18.872 114.01 23.615 120.53 30.2898L111.79 39.1312C109.503 36.7607 106.881 34.7156 104 33.0723V63.1608L103.996 63.162C103.812 71.8381 96.7205 78.8146 88 78.8146C79.1634 78.8146 72 71.6512 72 62.8146C72 53.978 79.1634 46.8146 88 46.8146C90.9143 46.8146 93.6466 47.5938 96 48.9551L96 17ZM88 70.8146C92.4183 70.8146 96 67.2329 96 62.8146C96 58.3963 92.4183 54.8146 88 54.8146C83.5817 54.8146 80 58.3963 80 62.8146C80 67.2329 83.5817 70.8146 88 70.8146Z" clip-rule="evenodd"/><path fill="#BE3519" fill-rule="evenodd" d="M40 79.8146C48.8366 79.8146 56 72.6512 56 63.8146C56 54.9781 48.8366 47.8146 40 47.8146C31.1634 47.8146 24 54.9781 24 63.8146C24 72.6512 31.1634 79.8146 40 79.8146ZM40 71.8146C44.4183 71.8146 48 68.2329 48 63.8146C48 59.3963 44.4183 55.8146 40 55.8146C35.5817 55.8146 32 59.3963 32 63.8146C32 68.2329 35.5817 71.8146 40 71.8146Z" clip-rule="evenodd"/><path fill="url(#paint2_linear_6_2)" fill-rule="evenodd" d="M40 78.8146C48.8366 78.8146 56 71.6512 56 62.8146C56 53.9781 48.8366 46.8146 40 46.8146C31.1634 46.8146 24 53.9781 24 62.8146C24 71.6512 31.1634 78.8146 40 78.8146ZM40 70.8146C44.4183 70.8146 48 67.2329 48 62.8146C48 58.3963 44.4183 54.8146 40 54.8146C35.5817 54.8146 32 58.3963 32 62.8146C32 67.2329 35.5817 70.8146 40 70.8146Z" clip-rule="evenodd"/><path fill="#BE3519" d="M47.9846 63.3146C47.9948 63.1492 48 62.9825 48 62.8146C48 58.3963 44.4183 54.8146 40 54.8146C35.5817 54.8146 32 58.3963 32 62.8146C32 62.9825 32.0052 63.1492 32.0154 63.3146C32.2735 59.1292 35.7496 55.8146 40 55.8146C44.2504 55.8146 47.7265 59.1292 47.9846 63.3146Z"/><path fill="#BE3519" d="M95.9846 63.3146C95.9948 63.1492 96 62.9825 96 62.8146C96 58.3963 92.4183 54.8146 88 54.8146C83.5817 54.8146 80 58.3963 80 62.8146C80 62.9825 80.0052 63.1492 80.0154 63.3146C80.2735 59.1292 83.7496 55.8146 88 55.8146C92.2504 55.8146 95.7265 59.1292 95.9846 63.3146Z"/><defs><filter id="filter0_i_6_2" width="96" height="24" x="16" y="39" color-interpolation-filters="sRGB" filterUnits="userSpaceOnUse"><feFlood flood-opacity="0" result="BackgroundImageFix"/><feBlend in="SourceGraphic" in2="BackgroundImageFix" mode="normal" result="shape"/><feColorMatrix in="SourceAlpha" result="hardAlpha" type="matrix" values="0 0 0 0 0 0 0 0 0 0 0 0 0 0 0 0 0 0 127 0"/><feOffset dy="1"/><feComposite in2="hardAlpha" k2="-1" k3="1" operator="arithmetic"/><feColorMatrix type="matrix" values="0 0 0 0 0 0 0 0 0 0 0 0 0 0 0 0 0 0 0.25 0"/><feBlend in2="shape" mode="normal" result="effect1_innerShadow_6_2"/></filter><filter id="filter1_i_6_2" width="5" height="5" x="99" y="89.815" color-interpolation-filters="sRGB" filterUnits="userSpaceOnUse"><feFlood flood-opacity="0" result="BackgroundImageFix"/><feBlend in="SourceGraphic" in2="BackgroundImageFix" mode="normal" result="shape"/><feColorMatrix in="SourceAlpha" result="hardAlpha" type="matrix" values="0 0 0 0 0 0 0 0 0 0 0 0 0 0 0 0 0 0 127 0"/><feOffset dy="1"/><feComposite in2="hardAlpha" k2="-1" k3="1" operator="arithmetic"/><feColorMatrix type="matrix" values="0 0 0 0 0 0 0 0 0 0 0 0 0 0 0 0 0 0 0.25 0"/><feBlend in2="shape" mode="normal" result="effect1_innerShadow_6_2"/></filter><filter id="filter2_i_6_2" width="5" height="5" x="51" y="94.815" color-interpolation-filters="sRGB" filterUnits="userSpaceOnUse"><feFlood flood-opacity="0" result="BackgroundImageFix"/><feBlend in="SourceGraphic" in2="BackgroundImageFix" mode="normal" result="shape"/><feColorMatrix in="SourceAlpha" result="hardAlpha" type="matrix" values="0 0 0 0 0 0 0 0 0 0 0 0 0 0 0 0 0 0 127 0"/><feOffset dy="1"/><feComposite in2="hardAlpha" k2="-1" k3="1" operator="arithmetic"/><feColorMatrix type="matrix" values="0 0 0 0 0 0 0 0 0 0 0 0 0 0 0 0 0 0 0.25 0"/><feBlend in2="shape" mode="normal" result="effect1_innerShadow_6_2"/></filter><filter id="filter3_i_6_2" width="5" height="5" x="72" y="94.815" color-interpolation-filters="sRGB" filterUnits="userSpaceOnUse"><feFlood flood-opacity="0" result="BackgroundImageFix"/><feBlend in="SourceGraphic" in2="BackgroundImageFix" mode="normal" result="shape"/><feColorMatrix in="SourceAlpha" result="hardAlpha" type="matrix" values="0 0 0 0 0 0 0 0 0 0 0 0 0 0 0 0 0 0 127 0"/><feOffset dy="1"/><feComposite in2="hardAlpha" k2="-1" k3="1" operator="arithmetic"/><feColorMatrix type="matrix" values="0 0 0 0 0 0 0 0 0 0 0 0 0 0 0 0 0 0 0.25 0"/><feBlend in2="shape" mode="normal" result="effect1_innerShadow_6_2"/></filter><filter id="filter4_i_6_2" width="5" height="5" x="24" y="89.815" color-interpolation-filters="sRGB" filterUnits="userSpaceOnUse"><feFlood flood-opacity="0" result="BackgroundImageFix"/><feBlend in="SourceGraphic" in2="BackgroundImageFix" mode="normal" result="shape"/><feColorMatrix in="SourceAlpha" result="hardAlpha" type="matrix" values="0 0 0 0 0 0 0 0 0 0 0 0 0 0 0 0 0 0 127 0"/><feOffset dy="1"/><feComposite in2="hardAlpha" k2="-1" k3="1" operator="arithmetic"/><feColorMatrix type="matrix" values="0 0 0 0 0 0 0 0 0 0 0 0 0 0 0 0 0 0 0.25 0"/><feBlend in2="shape" mode="normal" result="effect1_innerShadow_6_2"/></filter><linearGradient id="paint0_linear_6_2" x1="8" x2="120" y1="110.815" y2="110.815" gradientUnits="userSpaceOnUse"><stop stop-color="#292929"/><stop offset=".018" stop-color="#5A5A5A"/><stop offset=".072" stop-color="#292929"/><stop offset=".929" stop-color="#292929"/><stop offset=".982" stop-color="#5A5A5A"/><stop offset="1" stop-color="#292929"/></linearGradient><linearGradient id="paint1_linear_6_2" x1="96.001" x2="96.001" y1="22.815" y2="70.815" gradientUnits="userSpaceOnUse"><stop stop-color="#FF5D3D"/><stop offset="1" stop-color="#FC3D17"/></linearGradient><linearGradient id="paint2_linear_6_2" x1="40" x2="40.097" y1="30.815" y2="70.814" gradientUnits="userSpaceOnUse"><stop stop-color="#FF5D3D"/><stop offset="1" stop-color="#FC3D17"/></linearGradient></defs></svg>